<svg width="363" height="338" viewBox="0 0 363 338" fill="none" xmlns="http://www.w3.org/2000/svg">
<path d="M322.279 235.391C322.279 237.596 321.913 239.72 321.228 241.695C320.51 243.215 319.764 244.722 318.998 246.215C290.983 300.723 234.241 338 168.803 338C75.5792 338 0 262.339 0 169C0 75.6676 75.5792 0 168.803 0C210.374 0 248.442 15.0521 277.853 39.9986C280.219 42.0006 282.531 44.0772 284.781 46.2081C284.788 46.2149 284.788 46.2217 284.795 46.2285C286.896 49.3163 288.123 53.042 288.123 57.0459C288.123 67.7276 279.399 76.3869 268.635 76.3869C264.453 76.3869 260.575 75.0772 257.403 72.8513C256.271 71.7926 255.119 70.7611 253.946 69.7499C231.028 49.8999 201.142 37.8949 168.464 37.8949C96.2669 37.8949 37.7421 96.488 37.7421 168.762C37.7421 241.044 96.2669 299.637 168.464 299.637C218.759 299.637 262.426 271.195 284.286 229.507C285.201 227.763 286.076 225.998 286.916 224.207C290.427 219.192 296.25 215.921 302.832 215.921C313.569 215.921 322.279 224.641 322.279 235.391Z" fill="#076785"/>
<rect x="186.405" y="153.84" width="135.874" height="20.2126" rx="10.1063" fill="#368072"/>
<rect x="226.831" y="121.276" width="135.874" height="20.2126" rx="10.1063" fill="#F3C96A"/>
<rect x="145.98" y="187.528" width="135.874" height="20.2126" rx="10.1063" fill="#F3C96A"/>
<rect x="105.555" y="220.093" width="135.874" height="21.3355" rx="10.6678" fill="#368072"/>
</svg>
